<?xml version="1.0" encoding="utf-8"?>
<!-- Generator: Adobe Illustrator 24.1.2, SVG Export Plug-In . SVG Version: 6.00 Build 0)  -->
<svg version="1.1" xmlns="http://www.w3.org/2000/svg" xmlns:xlink="http://www.w3.org/1999/xlink" x="0px" y="0px"
	 viewBox="0 0 3398 2928" style="enable-background:new 0 0 3398 2928;" xml:space="preserve">
<style type="text/css">
	.st0{fill:#111F28;}
	.st1{fill:none;stroke:#D1DFE8;stroke-width:9;stroke-miterlimit:10;}
	.st2{fill:#00556F;}
	.st3{filter:url(#Adobe_OpacityMaskFilter);}
	.st4{opacity:0.5;mask:url(#SVGID_1_);}
	.st5{fill:#18161E;}
	.st6{fill:#09758E;}
	.st7{filter:url(#Adobe_OpacityMaskFilter_1_);}
	.st8{opacity:0.5;mask:url(#SVGID_2_);}
	.st9{fill:#0F93B2;}
	.st10{filter:url(#Adobe_OpacityMaskFilter_2_);}
	.st11{opacity:0.5;mask:url(#SVGID_3_);}
	.st12{fill:#223B4F;}
	.st13{filter:url(#Adobe_OpacityMaskFilter_3_);}
	.st14{opacity:0.9;mask:url(#SVGID_4_);}
	.st15{fill:#010607;}
	.st16{fill:#B574B2;}
	.st17{opacity:0.58;}
	.st18{fill:#BA85BA;}
</style>
<g id="Layer_1">
</g>
<g id="Layer_2">
	<rect x="-158" y="-128" class="st0" width="3663" height="3531"/>
	<path class="st1" d="M1449.9,159.2c136.1-26.1,369.6-82.1,645.7,0.7c190.8,57.2,267.4,140.2,390.8,212
		c219.4,127.6,414.1,118.8,1442.8-5.3c782.2-94.4,874.9-114,1104.8-86.9c373.4,44.1,692.9,162.7,812,209.8
		c218.6,86.5,372.4,173.9,497.1,245.4c442.8,253.9,664.2,380.8,688.6,522.7c55.6,323.4-778.2,790.6-1518.8,1040.5
		c-496.2,167.4-2213,746.8-3815.7-161C629.9,1532.5-73.4,446.2,110.8,181.1C231.6,7.3,645.5,313.7,1449.9,159.2z"/>
	<g>
		<g>
			<path class="st2" d="M768.5-1602L768.5-1602c-36.2-100.4-147-152.4-247.3-116.1L257-1622.8c16.9-42.4,18.9-90.8,2.2-137.1l0,0
				c-36.2-100.4-147-152.4-247.3-116.1l-264.4,95.5c15.4-41.4,16.8-88.2,0.7-133l0,0c-36.2-100.4-147-152.4-247.3-116.1
				l-1835.9,662.7l131.2,363.5l403.1-145.5l108,299.2l400.1-144.4l109.1,302.3l1835.9-662.7C752.7-1390.9,804.7-1501.6,768.5-1602z"
				/>
		</g>
		<defs>
			<filter id="Adobe_OpacityMaskFilter" filterUnits="userSpaceOnUse" x="-2335.1" y="-2041.1" width="3115.1" height="1349.2">
				
					<feColorMatrix  type="matrix" values="-1 0 0 0 1  0 -1 0 0 1  0 0 -1 0 1  0 0 0 1 0" color-interpolation-filters="sRGB" result="source"/>
			</filter>
		</defs>
		<mask maskUnits="userSpaceOnUse" x="-2335.1" y="-2041.1" width="3115.1" height="1349.2" id="SVGID_1_">
			<g class="st3">
				
					<image style="overflow:visible;" width="3120" height="1355" xlink:href="D8D81EC.jpg"  transform="matrix(1 0 0 1 -2338 -2044)">
				</image>
			</g>
		</mask>
		<g class="st4">
			<path class="st5" d="M768.5-1602L768.5-1602c-36.2-100.4-147-152.4-247.3-116.1L257-1622.8c16.9-42.4,18.9-90.8,2.2-137.1l0,0
				c-36.2-100.4-147-152.4-247.3-116.1l-264.4,95.5c15.4-41.4,16.8-88.2,0.7-133l0,0c-36.2-100.4-147-152.4-247.3-116.1
				l-1835.9,662.7l131.2,363.5l403.1-145.5l108,299.2l400.1-144.4l109.1,302.3l1835.9-662.7C752.7-1390.9,804.7-1501.6,768.5-1602z"
				/>
		</g>
	</g>
	<g>
		<g>
			<path class="st6" d="M498.7-1433.6L498.7-1433.6c-31.4-87.1-127.6-132.2-214.7-100.8l-229.3,82.8c14.7-36.8,16.4-78.8,1.9-119
				l0,0c-31.4-87.1-127.6-132.2-214.7-100.8l-229.5,82.9c13.4-35.9,14.6-76.6,0.6-115.4l0,0c-31.4-87.1-127.6-132.2-214.7-100.8
				l-1593.5,575.2l113.9,315.5l349.9-126.3l93.7,259.7l347.3-125.4l94.7,262.4L397.9-1219C485-1250.4,530.1-1346.5,498.7-1433.6z"/>
		</g>
		<defs>
			<filter id="Adobe_OpacityMaskFilter_1_" filterUnits="userSpaceOnUse" x="-2195.1" y="-1814.8" width="2703.8" height="1171.1">
				
					<feColorMatrix  type="matrix" values="-1 0 0 0 1  0 -1 0 0 1  0 0 -1 0 1  0 0 0 1 0" color-interpolation-filters="sRGB" result="source"/>
			</filter>
		</defs>
		<mask maskUnits="userSpaceOnUse" x="-2195.1" y="-1814.8" width="2703.8" height="1171.1" id="SVGID_2_">
			<g class="st7">
				
					<image style="overflow:visible;" width="2709" height="1176" xlink:href="D8D81ED.jpg"  transform="matrix(1 0 0 1 -2198 -1817)">
				</image>
			</g>
		</mask>
		<g class="st8">
			<path class="st5" d="M498.7-1433.6L498.7-1433.6c-31.4-87.1-127.6-132.2-214.7-100.8l-229.3,82.8c14.7-36.8,16.4-78.8,1.9-119
				l0,0c-31.4-87.1-127.6-132.2-214.7-100.8l-229.5,82.9c13.4-35.9,14.6-76.6,0.6-115.4l0,0c-31.4-87.1-127.6-132.2-214.7-100.8
				l-1593.5,575.2l113.9,315.5l349.9-126.3l93.7,259.7l347.3-125.4l94.7,262.4L397.9-1219C485-1250.4,530.1-1346.5,498.7-1433.6z"/>
		</g>
	</g>
	<g>
		<g>
			<path class="st9" d="M313.7-1239.6L313.7-1239.6c-31.4-87.1-127.6-132.2-214.7-100.8l-229.3,82.8c14.7-36.8,16.4-78.8,1.9-119
				l0,0c-31.4-87.1-127.6-132.2-214.7-100.8l-229.5,82.9c13.4-35.9,14.6-76.6,0.6-115.4l0,0c-31.4-87.1-127.6-132.2-214.7-100.8
				l-1593.5,575.2l113.9,315.5l349.9-126.3l93.7,259.7l347.3-125.4l94.7,262.4L212.9-1025C300-1056.4,345.1-1152.5,313.7-1239.6z"/>
		</g>
		<defs>
			<filter id="Adobe_OpacityMaskFilter_2_" filterUnits="userSpaceOnUse" x="-2380.1" y="-1620.8" width="2703.8" height="1171.1">
				
					<feColorMatrix  type="matrix" values="-1 0 0 0 1  0 -1 0 0 1  0 0 -1 0 1  0 0 0 1 0" color-interpolation-filters="sRGB" result="source"/>
			</filter>
		</defs>
		<mask maskUnits="userSpaceOnUse" x="-2380.1" y="-1620.8" width="2703.8" height="1171.1" id="SVGID_3_">
			<g class="st10">
				
					<image style="overflow:visible;" width="2709" height="1176" xlink:href="D8D81EE.jpg"  transform="matrix(1 0 0 1 -2383 -1623)">
				</image>
			</g>
		</mask>
		<g class="st11">
			<path class="st5" d="M313.7-1239.6L313.7-1239.6c-31.4-87.1-127.6-132.2-214.7-100.8l-229.3,82.8c14.7-36.8,16.4-78.8,1.9-119
				l0,0c-31.4-87.1-127.6-132.2-214.7-100.8l-229.5,82.9c13.4-35.9,14.6-76.6,0.6-115.4l0,0c-31.4-87.1-127.6-132.2-214.7-100.8
				l-1593.5,575.2l113.9,315.5l349.9-126.3l93.7,259.7l347.3-125.4l94.7,262.4L212.9-1025C300-1056.4,345.1-1152.5,313.7-1239.6z"/>
		</g>
	</g>
	<g>
		<g>
			<path class="st12" d="M1273,367.8c105.3-17.1,286.1-55,496.8,14.7c145.6,48.2,202.7,113.8,296,171.6
				c166,103,316,100.5,1110.2,27.6c603.9-55.4,675.6-68.5,851.9-42.6c286.3,42.1,529.5,140.4,620.1,179.2
				c166.3,71.4,282.7,142,377,199.7c335.1,205.1,502.7,307.6,518.3,417.2c35.7,250-616,591.2-1191.3,767.2
				c-385.4,117.9-1719,526-2932.1-207.6C612,1406.4,94.7,555.2,242.2,355.3C339,224.3,650.7,469.1,1273,367.8z"/>
		</g>
		<defs>
			<filter id="Adobe_OpacityMaskFilter_3_" filterUnits="userSpaceOnUse" x="217.2" y="315.7" width="5327.5" height="2006.4">
				
					<feColorMatrix  type="matrix" values="-1 0 0 0 1  0 -1 0 0 1  0 0 -1 0 1  0 0 0 1 0" color-interpolation-filters="sRGB" result="source"/>
			</filter>
		</defs>
		<mask maskUnits="userSpaceOnUse" x="217.2" y="315.7" width="5327.5" height="2006.4" id="SVGID_4_">
			<g class="st13">
				<image style="overflow:visible;" width="5332" height="2012" xlink:href="D8D81F3.jpg"  transform="matrix(1 0 0 1 215 313)">
				</image>
			</g>
		</mask>
		<g class="st14">
			<path class="st15" d="M1273,367.8c105.3-17.1,286.1-55,496.8,14.7c145.6,48.2,202.7,113.8,296,171.6
				c166,103,316,100.5,1110.2,27.6c603.9-55.4,675.6-68.5,851.9-42.6c286.3,42.1,529.5,140.4,620.1,179.2
				c166.3,71.4,282.7,142,377,199.7c335.1,205.1,502.7,307.6,518.3,417.2c35.7,250-616,591.2-1191.3,767.2
				c-385.4,117.9-1719,526-2932.1-207.6C612,1406.4,94.7,555.2,242.2,355.3C339,224.3,650.7,469.1,1273,367.8z"/>
		</g>
	</g>
	<circle class="st16" cx="872" cy="800" r="318"/>
	<g class="st17">
		
			<image style="overflow:visible;opacity:0.85;" width="636" height="636" xlink:href="D8D81EC.png"  transform="matrix(1 0 0 1 554 482)">
		</image>
		<g>
			<path class="st18" d="M836.4,1027.4L644.6,835.6c-19.7-19.7-19.7-51.6,0-71.3l191.7-191.7c19.7-19.7,51.6-19.7,71.3,0
				l191.7,191.7c19.7,19.7,19.7,51.6,0,71.3l-191.7,191.7C888,1047,856,1047,836.4,1027.4z"/>
		</g>
	</g>
</g>
</svg>
